#define ac_width 10
#define ac_height 10
static unsigned char ac_bits[] = {
   0x48, 0x00, 0x48, 0x00, 0xfc, 0x00, 0xfc, 0x00, 0xfc, 0x00, 0x78, 0x00,
   0x30, 0x00, 0x30, 0x00, 0x30, 0x00, 0x30, 0x00 };
