#define arrow_up_width 10
#define arrow_up_height 10
static unsigned char arrow_up_bits[] = {
   0x20, 0x00, 0x70, 0x00, 0xf8, 0x00, 0xfc, 0x01, 0xfe, 0x03, 0xf8, 0x00,
   0xf8, 0x00, 0xf8, 0x00, 0xf8, 0x00, 0xf8, 0x00 };
