#define arrow_down_width 10
#define arrow_down_height 10
static unsigned char arrow_down_bits[] = {
   0xf8, 0x00, 0xf8, 0x00, 0xf8, 0x00, 0xf8, 0x00, 0xf8, 0x00, 0xfe, 0x03,
   0xfc, 0x01, 0xf8, 0x00, 0x70, 0x00, 0x20, 0x00 };
