#define batt_half_width 10
#define batt_half_height 10
static unsigned char batt_half_bits[] = {
   0x00, 0x00, 0x00, 0x00, 0xff, 0x01, 0x01, 0x01, 0x0d, 0x03, 0x0d, 0x03,
   0x01, 0x01, 0xff, 0x01, 0x00, 0x00, 0x00, 0x00 };
