#define cpu_width 10
#define cpu_height 10
static unsigned char cpu_bits[] = {
   0x33, 0x03, 0x01, 0x02, 0xfc, 0x00, 0xfc, 0x00, 0xfd, 0x02, 0xfd, 0x02,
   0xfc, 0x00, 0xfc, 0x00, 0x01, 0x02, 0x33, 0x03 };
