#define diskette2_width 10
#define diskette2_height 10
static unsigned char diskette2_bits[] = {
   0xff, 0x03, 0x85, 0x02, 0x85, 0x03, 0x85, 0x02, 0xfd, 0x02, 0x01, 0x02,
   0xf9, 0x02, 0xf9, 0x02, 0xb9, 0x02, 0xfe, 0x03 };
