#define diskette_width 10
#define diskette_height 10
static unsigned char diskette_bits[] = {
   0x5b, 0x00, 0xdb, 0x00, 0xc3, 0x01, 0xff, 0x03, 0xff, 0x03, 0x03, 0x03,
   0x03, 0x03, 0x03, 0x03, 0x03, 0x03, 0xff, 0x03 };
