/* XPM */
static char *fa6_battery_three_quarters_solid_24[] = {
/* columns rows colors chars-per-pixel */
"24 19 28 1 ",
"  c #000000",
". c #0F0F0F",
"X c #171717",
"o c #191919",
"O c #1F1F1F",
"+ c #202020",
"@ c #272727",
"# c #303030",
"$ c #4F4F4F",
"% c #595959",
"& c #636363",
"* c #656565",
"= c #717171",
"- c #767676",
"; c #828282",
": c #969696",
"> c #989898",
", c #9F9F9F",
"< c #C2C2C2",
"1 c #C8C8C8",
"2 c #CCCCCC",
"3 c #CDCDCD",
"4 c #D2D2D2",
"5 c #D6D6D6",
"6 c #E8E8E8",
"7 c #EFEFEF",
"8 c #FAFAFA",
"9 c #FFFFFF",
/* pixels */
"                        ",
"                        ",
"                        ",
"O&===================%. ",
"<999999999999999999999; ",
"99655555555555555555791+",
"99-o@@@@@@@@@@@+XXXX,984",
"99*$33333333333-    :999",
"99**99999999999>    #,99",
"99**99999999999:     *99",
"99**99999999999>    #,99",
"99*$33333333333-    :999",
"99-o@@@@@@@@@@@+XXXX,984",
"99655555555555555555793+",
"<999999999999999999999; ",
"O&===================%. ",
"                        ",
"                        ",
"                        "
};
