/* XPM */
static char *fa6_thermometer_three_quarters_solid_24[] = {
/* columns rows colors chars-per-pixel */
"12 24 33 1 ",
"  c #000000",
". c #060606",
"X c #111111",
"o c #1B1B1B",
"O c #252525",
"+ c #292929",
"@ c #2C2C2C",
"# c #383838",
"$ c #535353",
"% c #5F5F5F",
"& c #636363",
"* c #6B6B6B",
"= c #7D7D7D",
"- c #808080",
"; c #858585",
": c #8B8B8B",
"> c #8C8C8C",
", c #959595",
"< c #ABABAB",
"1 c #AFAFAF",
"2 c #B2B2B2",
"3 c #B6B6B6",
"4 c #B9B9B9",
"5 c #BDBDBD",
"6 c #C1C1C1",
"7 c #C6C6C6",
"8 c #D3D3D3",
"9 c #D9D9D9",
"0 c #DDDDDD",
"q c #EBEBEB",
"w c #EDEDED",
"e c #F9F9F9",
"r c #FFFFFF",
/* pixels */
"   $7ee7$   ",
"  %wrrrrw%  ",
" O0r6%%6r0O ",
" &r0+  +0r& ",
" =r4.  .4r= ",
" =r3.XX.3r= ",
" =r2#77#2r= ",
" =r2-rr-2r= ",
" =r2;rr;2r= ",
" =r2;rr;2r= ",
" =r2;rr;2r= ",
" =r2;rr;2r= ",
" =r2;rr;2r= ",
" -r2;rr;2r- ",
"o6r<-rr-<r6o",
"-rq&1rr1&qr-",
"9r,>rrrr>,r9",
"ee*8rrrr8*ee",
"ee*8rrrr8*ee",
"9r,>rrrr:,r9",
"-rw*:88:*qr-",
"o5rq,**,qr5o",
" +5rreerr5@ ",
"  o-9ee9-o  "
};
