/* XPM */
static char *fa6_network_wired_solid_24[] = {
/* columns rows colors chars-per-pixel */
"24 19 31 1 ",
"  c black",
". c #080808",
"X c #262626",
"o c #2A2A2A",
"O c #2D2D2D",
"+ c #3D3D3D",
"@ c #494949",
"# c #505050",
"$ c #5C5C5C",
"% c #636363",
"& c #646464",
"* c #696969",
"= c #6F6F6F",
"- c #727272",
"; c #8B8B8B",
": c #929292",
"> c #979797",
", c #B2B2B2",
"< c #B4B4B4",
"1 c #BFBFBF",
"2 c #C1C1C1",
"3 c #D2D2D2",
"4 c #D8D8D8",
"5 c #DCDCDC",
"6 c #E5E5E5",
"7 c #EAEAEA",
"8 c #EFEFEF",
"9 c #F1F1F1",
"0 c #F7F7F7",
"q c #FAFAFA",
"w c #FEFEFE",
/* pixels */
"       ;wwwwwwww;       ",
"      .1wwwwwwww1.      ",
"      .2w1%&&%1w2.      ",
"      .2w:    :w2.      ",
"      .2w<@@@@<w2.      ",
"      .2wwqqqqww2.      ",
"       ;889ww989;       ",
"       .oO+55+Oo.       ",
"$*&*&&&&&%=66-%&&&&&&&*$",
"qwwwwwwwwwwwwwwwwwwwwwwq",
"$&&%,w>%&&&&&&&&%>w,%&&$",
" .oo>w-oX      Xo-w>oo. ",
" ;980w087&    &780w089; ",
".2wwqqqww>    >wwqqqww2.",
".1w<@@#3w>    >w3#@@<w1.",
".1w:   1w>    >w1   :w1.",
".1w1%%*4w>    >w4*%%1w1.",
".1wwwwwww>    >wwwwwww1.",
" ;wwwwww0%    %0wwwwww; "
};
