/* XPM */
static char *fa6_wifi_solid_24[] = {
/* columns rows colors chars-per-pixel */
"24 19 49 1 ",
"  c #000000",
". c #050505",
"X c #0B0B0B",
"o c #0E0E0E",
"O c #111111",
"+ c #181818",
"@ c #1E1E1E",
"# c #2A2A2A",
"$ c #2D2D2D",
"% c #303030",
"& c #373737",
"* c #393939",
"= c #3D3D3D",
"- c #454545",
"; c #494949",
": c #4D4D4D",
"> c #5B5B5B",
", c #5E5E5E",
"< c #636363",
"1 c #666666",
"2 c #696969",
"3 c #757575",
"4 c #7A7A7A",
"5 c #7D7D7D",
"6 c #8F8F8F",
"7 c #939393",
"8 c #969696",
"9 c #999999",
"0 c #9C9C9C",
"q c #A3A3A3",
"w c #A7A7A7",
"e c #B3B3B3",
"r c #B4B4B4",
"t c #B8B8B8",
"y c #BEBEBE",
"u c #C3C3C3",
"i c #C6C6C6",
"p c #CACACA",
"a c #D1D1D1",
"s c #D5D5D5",
"d c #D8D8D8",
"f c #DCDCDC",
"g c #E0E0E0",
"h c #E7E7E7",
"j c #ECECEC",
"k c #F3F3F3",
"l c #F4F4F4",
"z c #F8F8F8",
"x c #FFFFFF",
/* pixels */
"          .XX.          ",
"      +-30eyyr03-+      ",
"    &6slxxxxxxxxls6*    ",
"  #9jxxxxxzkkzxxxxxj9#  ",
".,fxxxlp7<-**-<7plxxxf,.",
"7lxxkw;O        O;wkxxl7",
"axxp:.    XooX    .:pxxa",
"$tq@   @>8tppt8>@   @qt$",
" OX  +5dxxxxxxxxd5+  XO ",
"    =ixxxxzjjzxxxxi=    ",
"    0xxzi4-%%-4izxx0    ",
"    #ug2O      O2gu#    ",
"     @#    oo    #@     ",
"         .1pp1.         ",
"         =jxxj=         ",
"         <xxxx<         ",
"         &hxxh&         ",
"          :ee:          ",
"           ..           "
};
