/* XPM */
static char *fa6_upload_solid_24[] = {
/* columns rows colors chars-per-pixel */
"24 24 33 1 ",
"  c #000000",
". c #0A0A0A",
"X c #101010",
"o c #141414",
"O c #1B1B1B",
"+ c #1D1D1D",
"@ c #212121",
"# c #272727",
"$ c #3A3A3A",
"% c #3E3E3E",
"& c #545454",
"* c #737373",
"= c #747474",
"- c #7F7F7F",
"; c #808080",
": c #969696",
"> c #989898",
", c #A1A1A1",
"< c #AFAFAF",
"1 c #B0B0B0",
"2 c #B6B6B6",
"3 c #BBBBBB",
"4 c #BCBCBC",
"5 c #CBCBCB",
"6 c #CCCCCC",
"7 c #D0D0D0",
"8 c #D5D5D5",
"9 c #E0E0E0",
"0 c #E4E4E4",
"q c #EAEAEA",
"w c #F4F4F4",
"e c #FBFBFB",
"r c #FFFFFF",
/* pixels */
"          #65#          ",
"         @3rr3@         ",
"        @4rrrr4@        ",
"       @4rrrrrr4@       ",
"      @4rrrrrrrr4@      ",
"     @4rrrrrrrrrr4@     ",
"    @4rrrrrrrrrrrr4@    ",
"   X2rrrrrrrrrrrrrr2X   ",
"   o29990errrre09992o   ",
"    X+++$0rrrr0$+++X    ",
"        +9rrrr9+        ",
"        +9rrrr9+        ",
"        +9rrrr9+        ",
"        +9rrrr9+        ",
"        +9rrrr9+        ",
"        +9rrrr9+        ",
"&-;;;;;%+9rrrr9+%;;;;;-&",
"wrrrrrr>.,9999,.>rrrrrrw",
"rrrrrrr9%.OOOO.%9rrrrrrr",
"rrrrrrrr9:----:9rrrrrrrr",
"rrrrrrrrrrrrrrrrq8rq8rrr",
"rrrrrrrrrrrrrrrr*+8=+8rr",
"rrrrrrrrrrrrrrrr<=q1=qrr",
"7rrrrrrrrrrrrrrrrrrrrrr7"
};
