/* XPM */
static char *fa6_battery_quarter_solid_24[] = {
/* columns rows colors chars-per-pixel */
"24 19 28 1 ",
"  c #000000",
". c #0F0F0F",
"X c #171717",
"o c #191919",
"O c #1F1F1F",
"+ c #212121",
"@ c #272727",
"# c #303030",
"$ c #4F4F4F",
"% c #535353",
"& c #595959",
"* c #636363",
"= c #656565",
"- c #6A6A6A",
"; c #717171",
": c #767676",
"> c #828282",
", c #949494",
"< c #9F9F9F",
"1 c #C2C2C2",
"2 c #C8C8C8",
"3 c #CDCDCD",
"4 c #D2D2D2",
"5 c #D6D6D6",
"6 c #E8E8E8",
"7 c #EFEFEF",
"8 c #FAFAFA",
"9 c #FFFFFF",
/* pixels */
"                        ",
"                        ",
"                        ",
"O*;;;;;;;;;;;;;;;;;;;&. ",
"1999999999999999999999> ",
"99655555555555555555792+",
"99:o@@@@OXXXXXXXXXXX<984",
"99=$3333%           ,999",
"99==9999-           #<99",
"99==9999-            =99",
"99==9999-           #<99",
"99=$3333%           ,999",
"99:o@@@@OXXXXXXXXXXX<984",
"99655555555555555555792+",
"1999999999999999999999> ",
"O*;;;;;;;;;;;;;;;;;;;&. ",
"                        ",
"                        ",
"                        "
};
