/* XPM */
static char *fa6_clock_solid_24[] = {
/* columns rows colors chars-per-pixel */
"24 24 31 1 ",
"  c #000000",
". c #050505",
"X c #0D0D0D",
"o c #151515",
"O c #1C1C1C",
"+ c #242424",
"@ c #282828",
"# c #2E2E2E",
"$ c #333333",
"% c #494949",
"& c #575757",
"* c #6B6B6B",
"= c #7B7B7B",
"- c #7F7F7F",
"; c #828282",
": c #979797",
"> c #999999",
", c #A0A0A0",
"< c #ABABAB",
"1 c #ADADAD",
"2 c #B4B4B4",
"3 c #BDBDBD",
"4 c #C0C0C0",
"5 c #C8C8C8",
"6 c #D4D4D4",
"7 c #DADADA",
"8 c #E7E7E7",
"9 c #EDEDED",
"0 c #F2F2F2",
"q c #F4F4F4",
"w c #FFFFFF",
/* pixels */
"       .$*:11:*$.       ",
"     .%<8wwwwww8<%.     ",
"    O>qwwwwwwwwwwq>O    ",
"   @4wwwwwwwwwwwwww4@   ",
"  O4wwwwww6;;6wwwwww4O  ",
" .>wwwwwww;  ;wwwwwww>. ",
" %qwwwwwww-  -wwwwwwwq% ",
".<wwwwwwww-  ;wwwwwwww<.",
"$8wwwwwwww-  -wwwwwwww8$",
"*wwwwwwwww;  -wwwwwwwww*",
":wwwwwwwww-  ;wwwwwwwww:",
"1wwwwwwwww-  =wwwwwwwww1",
"1wwwwwwwww;  +1wwwwwwww1",
":wwwwwwwww3o  X=9wwwwww:",
"*wwwwwwwwww2#   >wwwwww*",
"$8wwwwwwwwww7& #6wwwww8$",
".<wwwwwwwwwww0,5wwwwww<.",
" %qwwwwwwwwwwwwwwwwwwq% ",
" .>wwwwwwwwwwwwwwwwww>. ",
"  O4wwwwwwwwwwwwwwww4O  ",
"   @4wwwwwwwwwwwwww4@   ",
"    O>qwwwwwwwwwwq>O    ",
"     .%<8wwwwww8<%.     ",
"       .$*:11:*$.       "
};
