/* XPM */
static char *fa6_biohazard_solid_24[] = {
/* columns rows colors chars-per-pixel */
"24 21 55 1 ",
"  c #000000",
". c #060606",
"X c #080808",
"o c #0E0E0E",
"O c #111111",
"+ c #171717",
"@ c #1B1B1B",
"# c #1D1D1D",
"$ c #232323",
"% c #272727",
"& c #292929",
"* c #343434",
"= c #3A3A3A",
"- c #3E3E3E",
"; c #424242",
": c #454545",
"> c #484848",
", c #525252",
"< c #575757",
"1 c #585858",
"2 c #616161",
"3 c #666666",
"4 c #6D6D6D",
"5 c #707070",
"6 c #747474",
"7 c #787878",
"8 c #808080",
"9 c #898989",
"0 c #8D8D8D",
"q c #939393",
"w c #969696",
"e c #9A9A9A",
"r c #9D9D9D",
"t c #A2A2A2",
"y c #ABABAB",
"u c #AEAEAE",
"i c #B0B0B0",
"p c #B5B5B5",
"a c #BABABA",
"s c #BCBCBC",
"d c #C0C0C0",
"f c #CBCBCB",
"g c #CFCFCF",
"h c #D0D0D0",
"j c #D7D7D7",
"k c #D8D8D8",
"l c #DFDFDF",
"z c #E4E4E4",
"x c #E5E5E5",
"c c #E9E9E9",
"v c #EEEEEE",
"b c #F3F3F3",
"n c #F7F7F7",
"m c #FAFAFA",
"M c #FFFFFF",
/* pixels */
"     .q;        ;q.     ",
"     :k%        %k:     ",
"     rc$ $>22>$ $cr     ",
"    Ogm:*kMMMMk*:mgO    ",
"    #lMt+esrrde+tMl#    ",
"    +jMn5o.  .o5nMj+    ",
"    osMMne-##-enMMso    ",
"  o2pvMMMMbllbMMMMvp2o  ",
" $uMMMMMMMMMMMMMMMMMMu$ ",
"+pMMmMMMMMd,,dMMMMMmMMp+",
"0ze1>4smMv=  -bMma4>1ec9",
"i; =3$X7nc%  &cn6X$3= ;i",
"+  0M8  0Mq@@qM0  8M9  +",
"   1Mso &zMkkMz% odM<   ",
"   #km1 XsMMMMa. 1mj#   ",
"    6Mk* iMMMMu =kM5    ",
"    OyMtOfMMMMfOtMyo    ",
"     #r::nMMMMb::r@     ",
"       #dMMghMMs#       ",
"     o:sMmp&&aMMs;o     ",
"    Xwbmf5+  +5gmvwX    "
};
