/* XPM */
static char *fa6_bacteria_solid_24[] = {
/* columns rows colors chars-per-pixel */
"24 19 50 1 ",
"  c #000000",
". c #060606",
"X c #0A0A0A",
"o c #0F0F0F",
"O c #131313",
"+ c #141414",
"@ c #1C1C1C",
"# c #2B2B2B",
"$ c #2F2F2F",
"% c #313131",
"& c #373737",
"* c #3B3B3B",
"= c #474747",
"- c #484848",
"; c #505050",
": c #5A5A5A",
"> c #656565",
", c #696969",
"< c #6C6C6C",
"1 c #707070",
"2 c #767676",
"3 c #787878",
"4 c #7E7E7E",
"5 c #858585",
"6 c #8A8A8A",
"7 c #8C8C8C",
"8 c #929292",
"9 c #979797",
"0 c #9E9E9E",
"q c #A3A3A3",
"w c #ABABAB",
"e c #AEAEAE",
"r c #B5B5B5",
"t c #BBBBBB",
"y c #C0C0C0",
"u c #C6C6C6",
"i c #CACACA",
"p c #CCCCCC",
"a c #D3D3D3",
"s c #D6D6D6",
"d c #DBDBDB",
"f c #DFDFDF",
"g c #E0E0E0",
"h c #E5E5E5",
"j c #E8E8E8",
"k c #EEEEEE",
"l c #F0F0F0",
"z c #F6F6F6",
"x c #F8F8F8",
"c c #FEFEFE",
/* pixels */
"       >=@6tX           ",
"    oX@ihdzj;           ",
"    6riccccch8$         ",
"   Xwccccccccd&         ",
" O5qxccajcccc<      #+  ",
" Oycccc3rcccx;  O-#:s1  ",
" @pczxczxczii2  $fjcca*.",
"<uca=2zcll0O+O  +sccccgr",
";hcw #jz>=&    $4zccccx6",
"@fck9tcx,      ,xcccccf@",
"6xccccz4$    &=>zcccccj;",
"rgccccs+  O+O0llccccccu<",
".*accjf$  3iizclxccccp@ ",
"  1s:#-O  ;xcce%7ccccyO ",
"  +#      <ccc4 ;xcxq6+ ",
"         &dccch0sccwX   ",
"         $8hcccccir6    ",
"           ;jzdhi@Xo    ",
"           Xt6@=>       "
};
