/* XPM */
static char *fa6_memory_solid_24[] = {
/* columns rows colors chars-per-pixel */
"24 19 34 1 ",
"  c black",
". c #050505",
"X c #0B0B0B",
"o c #0E0E0E",
"O c #1E1E1E",
"+ c #242424",
"@ c #3B3B3B",
"# c #4C4C4C",
"$ c #565656",
"% c #676767",
"& c #7E7E7E",
"* c #848484",
"= c #8A8A8A",
"- c #8F8F8F",
"; c #969696",
": c #9A9A9A",
"> c #9C9C9C",
", c #B5B5B5",
"< c #B8B8B8",
"1 c #BFBFBF",
"2 c #C1C1C1",
"3 c #C6C6C6",
"4 c #CBCBCB",
"5 c #CCCCCC",
"6 c #D6D6D6",
"7 c #DFDFDF",
"8 c #E1E1E1",
"9 c #E7E7E7",
"0 c #EAEAEA",
"q c #EDEDED",
"w c #F0F0F0",
"e c #F6F6F6",
"r c #F9F9F9",
"t c #FFFFFF",
/* pixels */
"                        ",
"                        ",
"%:>>>>>>>>>>>>>>>>:>>>:%",
"rttttttttttttttttttttttr",
"wtttte1,8tq<<qt8,1ettttw",
"$0ttt8+ :t2oo2t: +8ttt0$",
"X3ttt8O ;t1XX1t; O8ttt3X",
"#9ttt8O ;t1XX1t; O8ttt9#",
"0tttt8O ;t1..1t; O8tttt0",
"tttttw-&4t7**7t4&-wttttt",
"tttttttttttttttttttttttt",
"555555554444555555555544",
"++++++++++++++++++++++++",
"666666666666666666666666",
"ttrrttttrrttttrrttttrrtt",
"tt==tttt==tttt==tttt==tt",
">>@@>>>>@@>>>>@@>>>>@@>>",
"                        ",
"                        "
};
