/* XPM */
static char *fa6_hdd_solid_24[] = {
/* columns rows colors chars-per-pixel */
"24 21 30 1 ",
"  c #000000",
". c #050505",
"X c #090909",
"o c #0F0F0F",
"O c #101010",
"+ c #1B1B1B",
"@ c #1F1F1F",
"# c #232323",
"$ c #353535",
"% c #3A3A3A",
"& c #3C3C3C",
"* c #4D4D4D",
"= c #575757",
"- c #626262",
"; c #646464",
": c #6E6E6E",
"> c #7C7C7C",
", c #969696",
"< c #A6A6A6",
"1 c #B1B1B1",
"2 c #B5B5B5",
"3 c #BABABA",
"4 c #CFCFCF",
"5 c #D4D4D4",
"6 c #E1E1E1",
"7 c #E7E7E7",
"8 c #E9E9E9",
"9 c #F5F5F5",
"0 c #F8F8F8",
"q c #FFFFFF",
/* pixels */
"                        ",
"                        ",
"     $-;;-----;;;-$     ",
"    *7qqqqqqqqqqqq7*    ",
"   @4qqqqqqqqqqqqqq4@   ",
"  .,qqqqqqqqqqqqqqqq,.  ",
"  =9qqqqqqqqqqqqqqqq9=  ",
" #5qqqqqqqqqqqqqqqqqq5# ",
"X,99999999999999999999,X",
"o&%%%%%%%%%%%%%%%%%%%%&o",
"+;>>>>>>>>>>>>>>>>>>>>;+",
"3qqqqqqqqqqqqqqqqqqqqqq3",
"qqqqqqqqqqqqqqq00qq00qqq",
"qqqqqqqqqqqqqq6==66==6qq",
"qqqqqqqqqqqqqq1  22  1qq",
"qqqqqqqqqqqqqq8::88::8qq",
"qqqqqqqqqqqqqqqqqqqqqqqq",
"<0qqqqqqqqqqqqqqqqqqqq0<",
"O*;---;;;;-----;;;;--;*O",
"                        ",
"                        "
};
