/* XPM */
static char *fa6_plug_solid_24[] = {
/* columns rows colors chars-per-pixel */
"18 24 25 1 ",
"  c #000000",
". c #060606",
"X c #171717",
"o c #1B1B1B",
"O c #1F1F1F",
"+ c #272727",
"@ c #292929",
"# c #3D3D3D",
"$ c #5B5B5B",
"% c #696969",
"& c #6C6C6C",
"* c #797979",
"= c #7F7F7F",
"- c #808080",
"; c #969696",
": c #989898",
"> c #A7A7A7",
", c #BFBFBF",
"< c #C5C5C5",
"1 c #D3D3D3",
"2 c #DDDDDD",
"3 c #E1E1E1",
"4 c #E4E4E4",
"5 c #FBFBFB",
"6 c #FFFFFF",
/* pixels */
"  .;5;.    .;5;.  ",
"  o262o    o262o  ",
"  O363O    O363O  ",
"  O363O    O363O  ",
"  O363O    O363O  ",
"  o<4<o    o<4<o  ",
"   XOX      oOX   ",
"&-==============-&",
"666666666666666666",
"666666666666666666",
"%,66666666666666,%",
" =66666666666666= ",
" *66666666666666* ",
" $66666666666666$ ",
" @46666666666664@ ",
"  :666666666666:  ",
"  +166666666661+  ",
"   #1666666661#   ",
"    +:466664:+    ",
"      @>66>@      ",
"       =66=       ",
"       -66-       ",
"       =66=       ",
"       -66=       "
};
