/* XPM */
static char *fa6_battery_half_solid_24[] = {
/* columns rows colors chars-per-pixel */
"24 19 29 1 ",
"  c #000000",
". c #0F0F0F",
"X c #171717",
"o c #191919",
"O c #1F1F1F",
"+ c #212121",
"@ c #272727",
"# c #303030",
"$ c #4F4F4F",
"% c #595959",
"& c #636363",
"* c #656565",
"= c #717171",
"- c #767676",
"; c #828282",
": c #949494",
"> c #9F9F9F",
", c #B3B3B3",
"< c #C2C2C2",
"1 c #C8C8C8",
"2 c #CCCCCC",
"3 c #CDCDCD",
"4 c #D2D2D2",
"5 c #D6D6D6",
"6 c #E3E3E3",
"7 c #E8E8E8",
"8 c #EFEFEF",
"9 c #FAFAFA",
"0 c #FFFFFF",
/* pixels */
"                        ",
"                        ",
"                        ",
"O&===================%. ",
"<000000000000000000000; ",
"00755555555555555555801+",
"00-o@@@@@@@@oXXXXXXX>094",
"00*$3333333,X       :000",
"00**00000006O       #>00",
"00**00000006O        *00",
"00**00000006O       #>00",
"00*$3333333,X       :000",
"00-o@@@@@@@@oXXXXXXX>094",
"00755555555555555555803+",
"<000000000000000000000; ",
"O&===================%. ",
"                        ",
"                        ",
"                        "
};
