/* XPM */
static char *fa6_battery_full_solid_24[] = {
/* columns rows colors chars-per-pixel */
"24 19 29 1 ",
"  c #000000",
". c #0F0F0F",
"X c #191919",
"o c #1F1F1F",
"O c #212121",
"+ c #272727",
"@ c #2C2C2C",
"# c #303030",
"$ c #404040",
"% c #4F4F4F",
"& c #595959",
"* c #636363",
"= c #656565",
"- c #717171",
"; c #767676",
": c #828282",
"> c #919191",
", c #9F9F9F",
"< c #C2C2C2",
"1 c #C4C4C4",
"2 c #CCCCCC",
"3 c #CDCDCD",
"4 c #D2D2D2",
"5 c #D6D6D6",
"6 c #E8E8E8",
"7 c #EFEFEF",
"8 c #F6F6F6",
"9 c #FAFAFA",
"0 c #FFFFFF",
/* pixels */
"                        ",
"                        ",
"                        ",
"o*-------------------&. ",
"<000000000000000000000: ",
"00655555555555555555701O",
"00;X+++++++++++++++X,094",
"00=%333333333333331#>000",
"00==000000000000009$@,00",
"00==000000000000008# =00",
"00==000000000000009$@,00",
"00=%333333333333331#>000",
"00;X+++++++++++++++X,094",
"00655555555555555555703O",
"<000000000000000000000: ",
"o*-------------------&. ",
"                        ",
"                        ",
"                        "
};
