/* XPM */
static char *fa6_beer_solid_24[] = {
/* columns rows colors chars-per-pixel */
"21 24 32 1 ",
"  c #000000",
". c #070707",
"X c #0C0C0C",
"o c #101010",
"O c #191919",
"+ c #1C1C1C",
"@ c #1F1F1F",
"# c #3D3D3D",
"$ c #494949",
"% c #4F4F4F",
"& c #535353",
"* c #5A5A5A",
"= c #7A7A7A",
"- c #7E7E7E",
"; c #898989",
": c #8F8F8F",
"> c #9A9A9A",
", c #9E9E9E",
"< c #A1A1A1",
"1 c #A6A6A6",
"2 c #B0B0B0",
"3 c #C3C3C3",
"4 c #D3D3D3",
"5 c #D6D6D6",
"6 c #DFDFDF",
"7 c #E0E0E0",
"8 c #EBEBEB",
"9 c #EEEEEE",
"0 c #F0F0F0",
"q c #F4F4F4",
"w c #F8F8F8",
"e c #FFFFFF",
/* pixels */
"                     ",
"&-------------$      ",
"qeeeeeeeeeeeee5O     ",
"eeeeeeeeeeeeee7+     ",
"eeeeeeeeeeeeee0:-=%X ",
"eeeew9eee9weeeeeeew1O",
"eeee,$9e9$,eeeeeeeee>",
"eeee-O7e7O-eee0:-<we9",
"eeee-O7e7O-eee7+ +7ee",
"eeee-O7e7O-eee7+ +7ee",
"eeee-O7e7O-eee7+ +7ee",
"eeee-O7e7O-eee7+ +7ee",
"eeee-O7e7O-eee7+ +7ee",
"eeee-+7e7O-eee7+ +7ee",
"eeee-+7e7O-eee7+ #8ee",
"eeee-O7e7O-eee7&;6ee4",
"eeee-O7e7O-eeew0eee9*",
"eeee,$9e9$,eeeeeew3& ",
"eeeew9eee9weeee02&o  ",
"eeeeeeeeeeeeee9%.    ",
"eeeeeeeeeeeeee7+     ",
"qeeeeeeeeeeeee5O     ",
"&-------------$      ",
"                     "
};
