/* XPM */
static char *fa6_envelope_solid_24[] = {
/* columns rows colors chars-per-pixel */
"24 24 37 1 ",
"  c black",
". c #070707",
"X c #080808",
"o c #0E0E0E",
"O c #101010",
"+ c #151515",
"@ c #171717",
"# c #1E1E1E",
"$ c #292929",
"% c #353535",
"& c #3A3A3A",
"* c #4C4C4C",
"= c #515151",
"- c #555555",
"; c #5A5A5A",
": c #636363",
"> c #6A6A6A",
", c #737373",
"< c #818181",
"1 c #8A8A8A",
"2 c #8F8F8F",
"3 c #909090",
"4 c #969696",
"5 c #B2B2B2",
"6 c #B4B4B4",
"7 c #BFBFBF",
"8 c #C2C2C2",
"9 c #C7C7C7",
"0 c #C8C8C8",
"q c #CFCFCF",
"w c #D9D9D9",
"e c #DEDEDE",
"r c #E0E0E0",
"t c #F3F3F3",
"y c #F5F5F5",
"u c #F8F8F8",
"i c #FFFFFF",
/* pixels */
"                        ",
"                        ",
" o####################o ",
"*8rrrrrrrrrrrrrrrrrrrr8*",
"eiiiiiiiiiiiiiiiiiiiiiie",
"iiiiiiiiiiiiiiiiiiiiiiii",
"riiiiiiiiiiiiiiiiiiiiiir",
"&7iiiiiiiiiiiiiiiiiiii7&",
"++4uiiiiiiiiiiiiiiiiu4++",
"q=X:riiiiiiiiiiiiiir:X=q",
"it<o%7iiiiiiiiiiii7%o<ti",
"iii6$O1tiiiiiiiiy1O$5iii",
"iiiie;.-wiiiiiiw-.;wiiii",
"iiiiiy3+$5iiii5$+2yiiiii",
"iiiiiii8%o,qq,o%8iiiiiii",
"iiiiiiiir>OOOO>riiiiiiii",
"iiiiiiiiii0119uiiiiiiiii",
"iiiiiiiiiiiiiiiiiiiiiiii",
"iiiiiiiiiiiiiiiiiiiiiiii",
"eiiiiiiiiiiiiiiiiiiiiiie",
"*8rrrrrrrrrrrrrrrrrrrr8*",
" o####################o ",
"                        ",
"                        "
};
