/* XPM */
static char *fa6_cloud_sun_rain_solid_24[] = {
/* columns rows colors chars-per-pixel */
"24 21 58 1 ",
"  c #000000",
". c #060606",
"X c #080808",
"o c #0F0F0F",
"O c #131313",
"+ c #161616",
"@ c #191919",
"# c #1C1C1C",
"$ c #232323",
"% c #272727",
"& c #282828",
"* c #2D2D2D",
"= c #313131",
"- c #363636",
"; c #414141",
": c #464646",
"> c #4B4B4B",
", c #4D4D4D",
"< c #535353",
"1 c #545454",
"2 c #5A5A5A",
"3 c #5C5C5C",
"4 c #626262",
"5 c #646464",
"6 c #686868",
"7 c #6F6F6F",
"8 c #717171",
"9 c #757575",
"0 c #7F7F7F",
"q c #828282",
"w c #878787",
"e c #898989",
"r c #8C8C8C",
"t c #929292",
"y c #979797",
"u c #989898",
"i c #9E9E9E",
"p c #A0A0A0",
"a c #A7A7A7",
"s c #A9A9A9",
"d c #AFAFAF",
"f c #B2B2B2",
"g c #B6B6B6",
"h c #BBBBBB",
"j c #BEBEBE",
"k c #C0C0C0",
"l c #C7C7C7",
"z c #D4D4D4",
"x c #D9D9D9",
"c c #DDDDDD",
"v c #E0E0E0",
"b c #E6E6E6",
"n c #EAEAEA",
"m c #EEEEEE",
"M c #F3F3F3",
"N c #F6F6F6",
"B c #FAFAFA",
"V c #FFFFFF",
/* pixels */
"       iu               ",
"  .   =nn=   .          ",
" .ei<#uVVu#1pe.         ",
"  tVBvnvvmvNnq          ",
"  :NVj>$$<y<$o          ",
"  @xk#>ai$.<ifr=        ",
"X;am,:mVh@wBVVVv545*    ",
"dMVb$yVV<>NVVVVVVVVv2   ",
"0zVn%eBtotVVVVVVVVVVc%  ",
" #9n5*5+7vVVVVVVVVVVVh> ",
"  @cx=.yVVVVVVVVVVVVVVm5",
"  1BV8-MVVVVVVVVVVVVVVVc",
"  pVb:<VVVVVVVVVVVVVVVVV",
"  56& -mVVVVVVVVVVVVVVVx",
"      .rVVVVVVVVVVVVVVn3",
"       o5sgggggggggggu; ",
"         oX..OX..OX..o  ",
"        -g% -g% -g% -g% ",
"       .slO.slO.slO.slO ",
"       1n, 1n, 1n, 1n,  ",
"       tdX tdX tdX td.  "
};
