/* XPM */
static char *fa6_download_solid_24[] = {
/* columns rows colors chars-per-pixel */
"24 24 31 1 ",
"  c #000000",
". c #0A0A0A",
"X c #0E0E0E",
"o c #111111",
"O c #141414",
"+ c #1E1E1E",
"@ c #202020",
"# c #2B2B2B",
"$ c #2E2E2E",
"% c #333333",
"& c #3A3A3A",
"* c #545454",
"= c #737373",
"- c #747474",
"; c #7F7F7F",
": c #808080",
"> c #919191",
", c #AFAFAF",
"< c #B3B3B3",
"1 c #B7B7B7",
"2 c #BDBDBD",
"3 c #CFCFCF",
"4 c #D0D0D0",
"5 c #D5D5D5",
"6 c #DEDEDE",
"7 c #E0E0E0",
"8 c #E4E4E4",
"9 c #EAEAEA",
"0 c #F4F4F4",
"q c #FBFBFB",
"w c #FFFFFF",
/* pixels */
"        X1wwww1X        ",
"        +7wwww7+        ",
"        +7wwww7+        ",
"        +7wwww7+        ",
"        +7wwww7+        ",
"        +7wwww7+        ",
"        +7wwww7+        ",
"        +7wwww7+        ",
"    o+++&8wwww8&+++o    ",
"   O17778qwwwwq87771O   ",
"   o1wwwwwwwwwwwwww1o   ",
"    @2wwwwwwwwwwww2@    ",
"     @2wwwwwwwwww2@     ",
"      @2wwwwwwww2@      ",
"       @2wwwwww2@       ",
"        @2wwww2@        ",
"*;:::::;#+2ww2+#;:;;;:;*",
"0wwwwwww3$+<<+$3wwwwwww0",
"wwwwwwwww3%..%3wwwwwwwww",
"wwwwwwwwww6>>6wwwwwwwwww",
"wwwwwwwwwwwwwwww95w95www",
"wwwwwwwwwwwwwwww=+5-+5ww",
"wwwwwwwwwwwwwwww,-9<-9ww",
"4wwwwwwwwwwwwwwwwwwwwww4"
};
