/* XPM */
static char *fa6_microchip_solid_24[] = {
/* columns rows colors chars-per-pixel */
"24 24 20 1 ",
"  c black",
". c #0B0B0B",
"X c #0F0F0F",
"o c #101010",
"O c #232323",
"+ c #4F4F4F",
"@ c #5B5B5B",
"# c #5E5E5E",
"$ c #616161",
"% c #656565",
"& c #7B7B7B",
"* c #7C7C7C",
"= c #808080",
"- c #9F9F9F",
"; c #B4B4B4",
": c #C1C1C1",
"> c #CFCFCF",
", c #F5F5F5",
"< c #FBFBFB",
"1 c #FFFFFF",
/* pixels */
"    o-<1111111111<-o    ",
"    @<1111111111111@    ",
"    *11111111111111*    ",
" .o *11111111111111* o. ",
"#;>+*11111111111111*+>;#",
":,1$&11111111111111&$1,:",
"X+%O*11111111111111*O%+X",
"    =11111111111111=    ",
"X+%O*11111111111111*O%+X",
":,1$&11111111111111&$1,:",
"#;>+*11111111111111*+>;#",
" .X *11111111111111* X. ",
" .X *11111111111111* X. ",
"#;>+*11111111111111*+>;#",
":,1$&11111111111111&$1,:",
"X+%O*11111111111111*O%+X",
"    =11111111111111=    ",
"X+%O*11111111111111*O%+X",
":,1$&11111111111111&$1,:",
"#;>+*11111111111111*+>;#",
" .o *11111111111111* o. ",
"    *11111111111111*    ",
"    @1111111111111<@    ",
"    o-<1111111111<-o    "
};
