#define mem_width 10
#define mem_height 10
static unsigned char mem_bits[] = {
   0xaa, 0x02, 0x00, 0x00, 0xfe, 0x03, 0xfe, 0x03, 0xfe, 0x03, 0xfe, 0x03,
   0xfe, 0x03, 0x00, 0x00, 0xaa, 0x02, 0x00, 0x00 };
