#define network_width 10
#define network_height 10
static unsigned char network_bits[] = {
   0x70, 0x00, 0x70, 0x00, 0x70, 0x00, 0x20, 0x00, 0xfc, 0x01, 0x04, 0x01,
   0x04, 0x01, 0x8e, 0x03, 0x8e, 0x03, 0x8e, 0x03 };
