/* XPM */
static char * places_mail_message_icon_24_xpm[] = {
"24 24 64 1",
" 	c None",
".	c #3F3F3F",
"+	c #7F7F7F",
"@	c #6F747A",
"#	c #F4F7FB",
"$	c #FFFFFF",
"%	c #FEFEFE",
"&	c #5F6976",
"*	c #C0D4EC",
"=	c #D7E3F2",
"-	c #FAFBFD",
";	c #656D77",
">	c #CBDBEF",
",	c #C7D8EE",
"'	c #BCD1EA",
")	c #DCE7F4",
"!	c #6A7079",
"~	c #D4E1F2",
"{	c #C2D5EC",
"]	c #B6CCE9",
"^	c #E8EFF8",
"/	c #6D7279",
"(	c #DAE5F3",
"_	c #D6E2F2",
":	c #B3CAE8",
"<	c #B8CEE9",
"[	c #70747A",
"}	c #DFE9F5",
"|	c #E0E9F5",
"1	c #BFD2EB",
"2	c #92B3DC",
"3	c #C3D6ED",
"4	c #FCFDFE",
"5	c #BFD3EB",
"6	c #72767B",
"7	c #E5EDF7",
"8	c #C2D4EA",
"9	c #B9CEE7",
"0	c #E3EBF6",
"a	c #95B6DF",
"b	c #E5ECF7",
"c	c #75787C",
"d	c #EBF1F9",
"e	c #E5EDF6",
"f	c #C0D2E8",
"g	c #D5E1F1",
"h	c #E7EEF7",
"i	c #787A7D",
"j	c #F0F5FA",
"k	c #F1F5FA",
"l	c #E2EAF4",
"m	c #CBD9EA",
"n	c #EAF0F7",
"o	c #7B7C7E",
"p	c #F5F8FC",
"q	c #E0E7F1",
"r	c #DFE7F1",
"s	c #F6F9FC",
"t	c #7A7B7C",
"u	c #E6EAF0",
"v	c #F3F5F9",
"w	c #797A7A",
"x	c #FDFDFD",
"y	c #79797A",
"                        ",
"                        ",
"                        ",
"                        ",
" .++++++++++++++++++++. ",
" @#$$%$$%$$$%$%$$%$$%#@ ",
" &*=-%%%%%%%%%%%%%%-=*& ",
" ;>,')%$%$$$%$%$$%)',>; ",
" !~~~{]^%$$$%$%$^]{~~~! ",
" /((((_:<#%%%%#<:_((((/ ",
" [}||}||12344325|}||}|@ ",
" 677777890{aa{098b77776 ",
" cdddefgdddhhdddgfedddc ",
" ijklmnkjkkkjkjkknmljki ",
" opqrpssssssssssssprqpo ",
" tuv4444444444444444vut ",
" wx$$%$$%$$$%$%$$%$$%xy ",
" +%$$%$$%$$$%$%$$%$$%$+ ",
"                        ",
"                        ",
"                        ",
"                        ",
"                        ",
"                        "};
