#define umbrella_width 10
#define umbrella_height 10
static unsigned char umbrella_bits[] = {
   0x20, 0x00, 0xf8, 0x00, 0xfc, 0x01, 0xfe, 0x03, 0x00, 0x00, 0x20, 0x00,
   0x20, 0x00, 0x20, 0x00, 0x20, 0x00, 0x38, 0x00 };
